<mxfile host="app.diagrams.net" modified="2024-05-01T19:53:39.001Z" agent="Mozilla/5.0 (Macintosh; Intel Mac OS X 10_15_7) AppleWebKit/537.36 (KHTML, like Gecko) Chrome/124.0.0.0 Safari/537.36" etag="iO5pjCmbjra9lR1pD5xZ" version="24.3.1" type="device">
  <diagram id="R2lEEEUBdFMjLlhIrx00" name="Page-1">
    <mxGraphModel dx="2530" dy="986" grid="1" gridSize="10" guides="1" tooltips="1" connect="1" arrows="1" fold="1" page="1" pageScale="1" pageWidth="850" pageHeight="1100" math="0" shadow="0" extFonts="Permanent Marker^https://fonts.googleapis.com/css?family=Permanent+Marker">
      <root>
        <mxCell id="0" />
        <mxCell id="1" parent="0" />
        <mxCell id="5Jw4eS8SUsvooxoYUkiR-97" value="" style="rounded=1;whiteSpace=wrap;html=1;" vertex="1" parent="1">
          <mxGeometry x="207.5" y="340" width="80" height="170" as="geometry" />
        </mxCell>
        <mxCell id="5Jw4eS8SUsvooxoYUkiR-75" style="edgeStyle=none;rounded=0;orthogonalLoop=1;jettySize=auto;html=1;exitX=0.5;exitY=1;exitDx=0;exitDy=0;entryX=0.5;entryY=0;entryDx=0;entryDy=0;" edge="1" parent="1" source="5Jw4eS8SUsvooxoYUkiR-14" target="5Jw4eS8SUsvooxoYUkiR-74">
          <mxGeometry relative="1" as="geometry" />
        </mxCell>
        <mxCell id="pYI6tK5hPcikcJURv3Pi-1" value="mcmc" style="ellipse;whiteSpace=wrap;html=1;" parent="1" vertex="1">
          <mxGeometry x="680" y="660" width="80" height="50" as="geometry" />
        </mxCell>
        <mxCell id="pYI6tK5hPcikcJURv3Pi-4" style="edgeStyle=none;rounded=0;orthogonalLoop=1;jettySize=auto;html=1;exitX=1;exitY=0.5;exitDx=0;exitDy=0;entryX=0;entryY=0.5;entryDx=0;entryDy=0;" parent="1" source="pYI6tK5hPcikcJURv3Pi-2" target="pYI6tK5hPcikcJURv3Pi-1" edge="1">
          <mxGeometry relative="1" as="geometry" />
        </mxCell>
        <mxCell id="pYI6tK5hPcikcJURv3Pi-2" value="posterior" style="ellipse;whiteSpace=wrap;html=1;" parent="1" vertex="1">
          <mxGeometry x="470" y="640" width="80" height="50" as="geometry" />
        </mxCell>
        <mxCell id="pYI6tK5hPcikcJURv3Pi-19" style="edgeStyle=none;rounded=0;orthogonalLoop=1;jettySize=auto;html=1;exitX=1;exitY=0.5;exitDx=0;exitDy=0;entryX=0;entryY=0.5;entryDx=0;entryDy=0;" parent="1" source="pYI6tK5hPcikcJURv3Pi-5" target="pYI6tK5hPcikcJURv3Pi-2" edge="1">
          <mxGeometry relative="1" as="geometry" />
        </mxCell>
        <mxCell id="pYI6tK5hPcikcJURv3Pi-5" value="treeLikelihood" style="ellipse;whiteSpace=wrap;html=1;" parent="1" vertex="1">
          <mxGeometry x="335" y="710" width="105" height="50" as="geometry" />
        </mxCell>
        <mxCell id="pYI6tK5hPcikcJURv3Pi-21" style="edgeStyle=none;rounded=0;orthogonalLoop=1;jettySize=auto;html=1;exitX=1;exitY=0.5;exitDx=0;exitDy=0;entryX=0;entryY=0.5;entryDx=0;entryDy=0;" parent="1" source="pYI6tK5hPcikcJURv3Pi-6" target="pYI6tK5hPcikcJURv3Pi-2" edge="1">
          <mxGeometry relative="1" as="geometry" />
        </mxCell>
        <mxCell id="pYI6tK5hPcikcJURv3Pi-6" value="prior" style="ellipse;whiteSpace=wrap;html=1;" parent="1" vertex="1">
          <mxGeometry x="360" y="500" width="80" height="50" as="geometry" />
        </mxCell>
        <mxCell id="pYI6tK5hPcikcJURv3Pi-14" style="rounded=0;orthogonalLoop=1;jettySize=auto;html=1;exitX=1;exitY=0.5;exitDx=0;exitDy=0;entryX=0;entryY=0.5;entryDx=0;entryDy=0;" parent="1" source="pYI6tK5hPcikcJURv3Pi-7" target="pYI6tK5hPcikcJURv3Pi-5" edge="1">
          <mxGeometry relative="1" as="geometry">
            <mxPoint x="330" y="700" as="targetPoint" />
          </mxGeometry>
        </mxCell>
        <mxCell id="5Jw4eS8SUsvooxoYUkiR-68" style="edgeStyle=orthogonalEdgeStyle;curved=1;rounded=0;orthogonalLoop=1;jettySize=auto;html=1;exitX=1;exitY=0.5;exitDx=0;exitDy=0;entryX=0;entryY=0.5;entryDx=0;entryDy=0;" edge="1" parent="1" source="pYI6tK5hPcikcJURv3Pi-7" target="pYI6tK5hPcikcJURv3Pi-33">
          <mxGeometry relative="1" as="geometry">
            <Array as="points">
              <mxPoint x="-77" y="800" />
              <mxPoint x="10" y="800" />
              <mxPoint x="10" y="635" />
            </Array>
          </mxGeometry>
        </mxCell>
        <mxCell id="5Jw4eS8SUsvooxoYUkiR-76" style="edgeStyle=none;rounded=0;orthogonalLoop=1;jettySize=auto;html=1;exitX=1;exitY=1;exitDx=0;exitDy=0;entryX=0;entryY=0.5;entryDx=0;entryDy=0;" edge="1" parent="1" source="pYI6tK5hPcikcJURv3Pi-7" target="5Jw4eS8SUsvooxoYUkiR-74">
          <mxGeometry relative="1" as="geometry" />
        </mxCell>
        <mxCell id="5Jw4eS8SUsvooxoYUkiR-82" style="edgeStyle=orthogonalEdgeStyle;curved=1;rounded=0;orthogonalLoop=1;jettySize=auto;html=1;exitX=1;exitY=0.5;exitDx=0;exitDy=0;entryX=0;entryY=0.5;entryDx=0;entryDy=0;" edge="1" parent="1" source="pYI6tK5hPcikcJURv3Pi-7" target="pYI6tK5hPcikcJURv3Pi-22">
          <mxGeometry relative="1" as="geometry">
            <Array as="points">
              <mxPoint x="40" y="810" />
              <mxPoint x="40" y="590" />
              <mxPoint x="510" y="590" />
            </Array>
          </mxGeometry>
        </mxCell>
        <mxCell id="pYI6tK5hPcikcJURv3Pi-7" value="&lt;font style=&quot;font-size: 20px;&quot;&gt;tree&lt;/font&gt;" style="ellipse;whiteSpace=wrap;html=1;" parent="1" vertex="1">
          <mxGeometry x="-202.5" y="770" width="125" height="80" as="geometry" />
        </mxCell>
        <mxCell id="pYI6tK5hPcikcJURv3Pi-13" style="edgeStyle=none;rounded=0;orthogonalLoop=1;jettySize=auto;html=1;exitX=1;exitY=0.5;exitDx=0;exitDy=0;entryX=0;entryY=0.5;entryDx=0;entryDy=0;" parent="1" source="pYI6tK5hPcikcJURv3Pi-8" target="pYI6tK5hPcikcJURv3Pi-5" edge="1">
          <mxGeometry relative="1" as="geometry">
            <mxPoint x="270" y="740" as="targetPoint" />
          </mxGeometry>
        </mxCell>
        <mxCell id="pYI6tK5hPcikcJURv3Pi-8" value="alignment" style="ellipse;whiteSpace=wrap;html=1;" parent="1" vertex="1">
          <mxGeometry x="60" y="960" width="80" height="50" as="geometry" />
        </mxCell>
        <mxCell id="pYI6tK5hPcikcJURv3Pi-17" style="edgeStyle=none;rounded=0;orthogonalLoop=1;jettySize=auto;html=1;exitX=1;exitY=0.5;exitDx=0;exitDy=0;entryX=0;entryY=0.5;entryDx=0;entryDy=0;" parent="1" source="pYI6tK5hPcikcJURv3Pi-11" target="pYI6tK5hPcikcJURv3Pi-5" edge="1">
          <mxGeometry relative="1" as="geometry" />
        </mxCell>
        <mxCell id="pYI6tK5hPcikcJURv3Pi-11" value="siteModel" style="ellipse;whiteSpace=wrap;html=1;" parent="1" vertex="1">
          <mxGeometry x="190" y="680" width="80" height="50" as="geometry" />
        </mxCell>
        <mxCell id="pYI6tK5hPcikcJURv3Pi-15" style="edgeStyle=none;rounded=0;orthogonalLoop=1;jettySize=auto;html=1;exitX=1;exitY=0.5;exitDx=0;exitDy=0;entryX=0;entryY=0.5;entryDx=0;entryDy=0;" parent="1" source="pYI6tK5hPcikcJURv3Pi-12" target="pYI6tK5hPcikcJURv3Pi-11" edge="1">
          <mxGeometry relative="1" as="geometry" />
        </mxCell>
        <mxCell id="pYI6tK5hPcikcJURv3Pi-12" value="JC69" style="ellipse;whiteSpace=wrap;html=1;" parent="1" vertex="1">
          <mxGeometry x="90" y="700" width="80" height="50" as="geometry" />
        </mxCell>
        <mxCell id="pYI6tK5hPcikcJURv3Pi-29" style="edgeStyle=none;rounded=0;orthogonalLoop=1;jettySize=auto;html=1;exitX=1;exitY=0.5;exitDx=0;exitDy=0;entryX=0;entryY=0.5;entryDx=0;entryDy=0;" parent="1" source="pYI6tK5hPcikcJURv3Pi-22" target="pYI6tK5hPcikcJURv3Pi-1" edge="1">
          <mxGeometry relative="1" as="geometry" />
        </mxCell>
        <mxCell id="pYI6tK5hPcikcJURv3Pi-22" value="state" style="ellipse;whiteSpace=wrap;html=1;" parent="1" vertex="1">
          <mxGeometry x="510" y="540" width="80" height="50" as="geometry" />
        </mxCell>
        <mxCell id="pYI6tK5hPcikcJURv3Pi-28" style="edgeStyle=none;rounded=0;orthogonalLoop=1;jettySize=auto;html=1;exitX=1;exitY=0.5;exitDx=0;exitDy=0;entryX=0;entryY=0.5;entryDx=0;entryDy=0;" parent="1" source="pYI6tK5hPcikcJURv3Pi-24" target="pYI6tK5hPcikcJURv3Pi-1" edge="1">
          <mxGeometry relative="1" as="geometry" />
        </mxCell>
        <mxCell id="pYI6tK5hPcikcJURv3Pi-24" value="loggers" style="ellipse;whiteSpace=wrap;html=1;" parent="1" vertex="1">
          <mxGeometry x="520" y="800" width="80" height="50" as="geometry" />
        </mxCell>
        <mxCell id="pYI6tK5hPcikcJURv3Pi-33" value="&lt;span style=&quot;background-color: initial;&quot;&gt;branchRateModel&lt;/span&gt;" style="ellipse;whiteSpace=wrap;html=1;" parent="1" vertex="1">
          <mxGeometry x="175" y="610" width="110" height="50" as="geometry" />
        </mxCell>
        <mxCell id="5Jw4eS8SUsvooxoYUkiR-7" style="edgeStyle=none;rounded=0;orthogonalLoop=1;jettySize=auto;html=1;exitX=1;exitY=0.5;exitDx=0;exitDy=0;entryX=0;entryY=0.5;entryDx=0;entryDy=0;" edge="1" parent="1" source="5Jw4eS8SUsvooxoYUkiR-11" target="pYI6tK5hPcikcJURv3Pi-33">
          <mxGeometry relative="1" as="geometry">
            <mxPoint x="60" y="585" as="sourcePoint" />
          </mxGeometry>
        </mxCell>
        <mxCell id="5Jw4eS8SUsvooxoYUkiR-8" style="edgeStyle=none;rounded=0;orthogonalLoop=1;jettySize=auto;html=1;exitX=1;exitY=0.5;exitDx=0;exitDy=0;entryX=-0.014;entryY=0.58;entryDx=0;entryDy=0;entryPerimeter=0;" edge="1" parent="1" source="pYI6tK5hPcikcJURv3Pi-33" target="pYI6tK5hPcikcJURv3Pi-5">
          <mxGeometry relative="1" as="geometry" />
        </mxCell>
        <mxCell id="5Jw4eS8SUsvooxoYUkiR-12" style="edgeStyle=none;rounded=0;orthogonalLoop=1;jettySize=auto;html=1;exitX=1;exitY=0.5;exitDx=0;exitDy=0;entryX=0;entryY=0.5;entryDx=0;entryDy=0;" edge="1" parent="1" source="5Jw4eS8SUsvooxoYUkiR-10" target="pYI6tK5hPcikcJURv3Pi-11">
          <mxGeometry relative="1" as="geometry" />
        </mxCell>
        <mxCell id="5Jw4eS8SUsvooxoYUkiR-39" style="edgeStyle=none;rounded=0;orthogonalLoop=1;jettySize=auto;html=1;exitX=1;exitY=0.5;exitDx=0;exitDy=0;entryX=0;entryY=0.5;entryDx=0;entryDy=0;" edge="1" parent="1" source="5Jw4eS8SUsvooxoYUkiR-11" target="5Jw4eS8SUsvooxoYUkiR-28">
          <mxGeometry relative="1" as="geometry" />
        </mxCell>
        <mxCell id="5Jw4eS8SUsvooxoYUkiR-15" style="edgeStyle=none;rounded=0;orthogonalLoop=1;jettySize=auto;html=1;exitX=1;exitY=0.5;exitDx=0;exitDy=0;entryX=0;entryY=0.5;entryDx=0;entryDy=0;" edge="1" parent="1" source="5Jw4eS8SUsvooxoYUkiR-13" target="pYI6tK5hPcikcJURv3Pi-6">
          <mxGeometry relative="1" as="geometry" />
        </mxCell>
        <mxCell id="5Jw4eS8SUsvooxoYUkiR-13" value="treeDensity" style="ellipse;whiteSpace=wrap;html=1;" vertex="1" parent="1">
          <mxGeometry x="207.5" y="525" width="75" height="50" as="geometry" />
        </mxCell>
        <mxCell id="5Jw4eS8SUsvooxoYUkiR-17" style="edgeStyle=none;rounded=0;orthogonalLoop=1;jettySize=auto;html=1;exitX=1;exitY=0.5;exitDx=0;exitDy=0;entryX=0;entryY=0.5;entryDx=0;entryDy=0;" edge="1" parent="1" source="5Jw4eS8SUsvooxoYUkiR-14" target="5Jw4eS8SUsvooxoYUkiR-13">
          <mxGeometry relative="1" as="geometry" />
        </mxCell>
        <mxCell id="5Jw4eS8SUsvooxoYUkiR-21" style="edgeStyle=none;rounded=0;orthogonalLoop=1;jettySize=auto;html=1;exitX=1;exitY=0.5;exitDx=0;exitDy=0;entryX=0;entryY=0.5;entryDx=0;entryDy=0;" edge="1" parent="1" source="5Jw4eS8SUsvooxoYUkiR-18" target="5Jw4eS8SUsvooxoYUkiR-14">
          <mxGeometry relative="1" as="geometry" />
        </mxCell>
        <mxCell id="5Jw4eS8SUsvooxoYUkiR-36" style="edgeStyle=none;rounded=0;orthogonalLoop=1;jettySize=auto;html=1;exitX=1;exitY=0.5;exitDx=0;exitDy=0;entryX=0;entryY=0.5;entryDx=0;entryDy=0;" edge="1" parent="1" source="5Jw4eS8SUsvooxoYUkiR-18" target="5Jw4eS8SUsvooxoYUkiR-25">
          <mxGeometry relative="1" as="geometry" />
        </mxCell>
        <mxCell id="5Jw4eS8SUsvooxoYUkiR-18" value="c" style="ellipse;whiteSpace=wrap;html=1;" vertex="1" parent="1">
          <mxGeometry x="-125" y="430" width="40" height="30" as="geometry" />
        </mxCell>
        <mxCell id="5Jw4eS8SUsvooxoYUkiR-22" style="edgeStyle=none;rounded=0;orthogonalLoop=1;jettySize=auto;html=1;exitX=1;exitY=0.5;exitDx=0;exitDy=0;entryX=0;entryY=0.5;entryDx=0;entryDy=0;" edge="1" parent="1" source="5Jw4eS8SUsvooxoYUkiR-19" target="5Jw4eS8SUsvooxoYUkiR-14">
          <mxGeometry relative="1" as="geometry" />
        </mxCell>
        <mxCell id="5Jw4eS8SUsvooxoYUkiR-37" style="edgeStyle=none;rounded=0;orthogonalLoop=1;jettySize=auto;html=1;exitX=1;exitY=0.5;exitDx=0;exitDy=0;entryX=0;entryY=0.5;entryDx=0;entryDy=0;" edge="1" parent="1" source="5Jw4eS8SUsvooxoYUkiR-19" target="5Jw4eS8SUsvooxoYUkiR-26">
          <mxGeometry relative="1" as="geometry" />
        </mxCell>
        <mxCell id="5Jw4eS8SUsvooxoYUkiR-19" value="K" style="ellipse;whiteSpace=wrap;html=1;" vertex="1" parent="1">
          <mxGeometry x="-135" y="470" width="40" height="30" as="geometry" />
        </mxCell>
        <mxCell id="5Jw4eS8SUsvooxoYUkiR-23" style="edgeStyle=none;rounded=0;orthogonalLoop=1;jettySize=auto;html=1;exitX=1;exitY=0.5;exitDx=0;exitDy=0;entryX=0;entryY=0.5;entryDx=0;entryDy=0;" edge="1" parent="1" source="5Jw4eS8SUsvooxoYUkiR-20" target="5Jw4eS8SUsvooxoYUkiR-14">
          <mxGeometry relative="1" as="geometry" />
        </mxCell>
        <mxCell id="5Jw4eS8SUsvooxoYUkiR-20" value="N" style="ellipse;whiteSpace=wrap;html=1;" vertex="1" parent="1">
          <mxGeometry x="-125" y="510" width="40" height="30" as="geometry" />
        </mxCell>
        <mxCell id="5Jw4eS8SUsvooxoYUkiR-35" style="edgeStyle=none;rounded=0;orthogonalLoop=1;jettySize=auto;html=1;exitX=1;exitY=0.5;exitDx=0;exitDy=0;entryX=0;entryY=0.5;entryDx=0;entryDy=0;" edge="1" parent="1" source="5Jw4eS8SUsvooxoYUkiR-25" target="pYI6tK5hPcikcJURv3Pi-6">
          <mxGeometry relative="1" as="geometry" />
        </mxCell>
        <mxCell id="5Jw4eS8SUsvooxoYUkiR-25" value="cPrior" style="ellipse;whiteSpace=wrap;html=1;" vertex="1" parent="1">
          <mxGeometry x="222.5" y="350" width="57.5" height="30" as="geometry" />
        </mxCell>
        <mxCell id="5Jw4eS8SUsvooxoYUkiR-34" style="edgeStyle=none;rounded=0;orthogonalLoop=1;jettySize=auto;html=1;exitX=1;exitY=0.5;exitDx=0;exitDy=0;entryX=0;entryY=0.5;entryDx=0;entryDy=0;" edge="1" parent="1" source="5Jw4eS8SUsvooxoYUkiR-26" target="pYI6tK5hPcikcJURv3Pi-6">
          <mxGeometry relative="1" as="geometry" />
        </mxCell>
        <mxCell id="5Jw4eS8SUsvooxoYUkiR-26" value="KPrior" style="ellipse;whiteSpace=wrap;html=1;" vertex="1" parent="1">
          <mxGeometry x="222.5" y="390" width="57.5" height="30" as="geometry" />
        </mxCell>
        <mxCell id="5Jw4eS8SUsvooxoYUkiR-33" style="edgeStyle=none;rounded=0;orthogonalLoop=1;jettySize=auto;html=1;exitX=1;exitY=0.5;exitDx=0;exitDy=0;entryX=0;entryY=0.5;entryDx=0;entryDy=0;" edge="1" parent="1" source="5Jw4eS8SUsvooxoYUkiR-28" target="pYI6tK5hPcikcJURv3Pi-6">
          <mxGeometry relative="1" as="geometry" />
        </mxCell>
        <mxCell id="5Jw4eS8SUsvooxoYUkiR-28" value="alphaPrior" style="ellipse;whiteSpace=wrap;html=1;" vertex="1" parent="1">
          <mxGeometry x="207.5" y="430" width="72.5" height="30" as="geometry" />
        </mxCell>
        <mxCell id="5Jw4eS8SUsvooxoYUkiR-31" style="edgeStyle=none;rounded=0;orthogonalLoop=1;jettySize=auto;html=1;exitX=1;exitY=0.5;exitDx=0;exitDy=0;entryX=0;entryY=0.5;entryDx=0;entryDy=0;" edge="1" parent="1" source="5Jw4eS8SUsvooxoYUkiR-29" target="pYI6tK5hPcikcJURv3Pi-6">
          <mxGeometry relative="1" as="geometry" />
        </mxCell>
        <mxCell id="5Jw4eS8SUsvooxoYUkiR-29" value="muPrior" style="ellipse;whiteSpace=wrap;html=1;" vertex="1" parent="1">
          <mxGeometry x="207.5" y="470" width="72.5" height="30" as="geometry" />
        </mxCell>
        <mxCell id="5Jw4eS8SUsvooxoYUkiR-83" style="edgeStyle=orthogonalEdgeStyle;curved=1;rounded=0;orthogonalLoop=1;jettySize=auto;html=1;exitX=0.5;exitY=0;exitDx=0;exitDy=0;entryX=0;entryY=0.5;entryDx=0;entryDy=0;" edge="1" parent="1" source="5Jw4eS8SUsvooxoYUkiR-44" target="pYI6tK5hPcikcJURv3Pi-22">
          <mxGeometry relative="1" as="geometry">
            <Array as="points">
              <mxPoint x="-113" y="310" />
              <mxPoint x="390" y="310" />
              <mxPoint x="390" y="470" />
              <mxPoint x="510" y="470" />
            </Array>
          </mxGeometry>
        </mxCell>
        <mxCell id="5Jw4eS8SUsvooxoYUkiR-84" style="edgeStyle=orthogonalEdgeStyle;curved=1;rounded=0;orthogonalLoop=1;jettySize=auto;html=1;exitX=0.5;exitY=0;exitDx=0;exitDy=0;entryX=0;entryY=0.5;entryDx=0;entryDy=0;" edge="1" parent="1" source="5Jw4eS8SUsvooxoYUkiR-44" target="5Jw4eS8SUsvooxoYUkiR-49">
          <mxGeometry relative="1" as="geometry">
            <Array as="points">
              <mxPoint x="-112" y="290" />
              <mxPoint x="420" y="290" />
            </Array>
          </mxGeometry>
        </mxCell>
        <mxCell id="5Jw4eS8SUsvooxoYUkiR-44" value="parameters" style="swimlane;whiteSpace=wrap;html=1;" vertex="1" parent="1">
          <mxGeometry x="-170" y="390" width="115" height="260" as="geometry" />
        </mxCell>
        <mxCell id="5Jw4eS8SUsvooxoYUkiR-10" value="mu" style="ellipse;whiteSpace=wrap;html=1;" vertex="1" parent="5Jw4eS8SUsvooxoYUkiR-44">
          <mxGeometry x="35" y="200" width="40" height="30" as="geometry" />
        </mxCell>
        <mxCell id="5Jw4eS8SUsvooxoYUkiR-11" value="alpha" style="ellipse;whiteSpace=wrap;html=1;" vertex="1" parent="5Jw4eS8SUsvooxoYUkiR-44">
          <mxGeometry x="25" y="160" width="40" height="30" as="geometry" />
        </mxCell>
        <mxCell id="5Jw4eS8SUsvooxoYUkiR-61" style="edgeStyle=none;rounded=0;orthogonalLoop=1;jettySize=auto;html=1;exitX=1;exitY=1;exitDx=0;exitDy=0;entryX=0;entryY=0.5;entryDx=0;entryDy=0;" edge="1" parent="1" source="5Jw4eS8SUsvooxoYUkiR-49" target="pYI6tK5hPcikcJURv3Pi-1">
          <mxGeometry relative="1" as="geometry" />
        </mxCell>
        <mxCell id="5Jw4eS8SUsvooxoYUkiR-49" value="operators" style="swimlane;whiteSpace=wrap;html=1;" vertex="1" parent="1">
          <mxGeometry x="420" y="240" width="200" height="200" as="geometry" />
        </mxCell>
        <mxCell id="5Jw4eS8SUsvooxoYUkiR-50" value="cScaler&lt;div&gt;KScaler&lt;/div&gt;&lt;div&gt;alphaScaler&lt;/div&gt;&lt;div&gt;muScaler&lt;/div&gt;" style="text;html=1;align=center;verticalAlign=middle;resizable=0;points=[];autosize=1;strokeColor=none;fillColor=none;" vertex="1" parent="5Jw4eS8SUsvooxoYUkiR-49">
          <mxGeometry y="30" width="90" height="70" as="geometry" />
        </mxCell>
        <mxCell id="5Jw4eS8SUsvooxoYUkiR-55" value="sbTreeScale&lt;div&gt;sbDormantScale&lt;/div&gt;&lt;div&gt;sbPairBirth&lt;/div&gt;&lt;div&gt;sbPairDeath&lt;/div&gt;&lt;div&gt;sbWilsonBalding&lt;/div&gt;" style="text;html=1;align=center;verticalAlign=middle;resizable=0;points=[];autosize=1;strokeColor=none;fillColor=none;" vertex="1" parent="5Jw4eS8SUsvooxoYUkiR-49">
          <mxGeometry x="80" y="40" width="110" height="90" as="geometry" />
        </mxCell>
        <mxCell id="5Jw4eS8SUsvooxoYUkiR-56" value="subtreeSlide&lt;div&gt;narrowExchange&lt;/div&gt;&lt;div&gt;wideExchange&lt;/div&gt;&lt;div&gt;(WilsonBalding)&lt;/div&gt;" style="text;html=1;align=center;verticalAlign=middle;resizable=0;points=[];autosize=1;strokeColor=none;fillColor=none;" vertex="1" parent="5Jw4eS8SUsvooxoYUkiR-49">
          <mxGeometry y="130" width="110" height="70" as="geometry" />
        </mxCell>
        <mxCell id="5Jw4eS8SUsvooxoYUkiR-65" style="edgeStyle=none;rounded=0;orthogonalLoop=1;jettySize=auto;html=1;exitX=1;exitY=0.5;exitDx=0;exitDy=0;entryX=0;entryY=0.5;entryDx=0;entryDy=0;" edge="1" parent="1" source="5Jw4eS8SUsvooxoYUkiR-64" target="pYI6tK5hPcikcJURv3Pi-8">
          <mxGeometry relative="1" as="geometry" />
        </mxCell>
        <mxCell id="5Jw4eS8SUsvooxoYUkiR-64" value="sequences" style="swimlane;whiteSpace=wrap;html=1;" vertex="1" parent="1">
          <mxGeometry x="-182.5" y="990" width="140" height="83" as="geometry" />
        </mxCell>
        <mxCell id="5Jw4eS8SUsvooxoYUkiR-102" value="AGCTAGCTAGCT....&lt;div&gt;AGCTAGCTAGCT....&lt;br&gt;&lt;/div&gt;&lt;div&gt;AGCTAGCTAGCT....&lt;br&gt;&lt;/div&gt;" style="text;html=1;align=center;verticalAlign=middle;resizable=0;points=[];autosize=1;strokeColor=none;fillColor=none;" vertex="1" parent="5Jw4eS8SUsvooxoYUkiR-64">
          <mxGeometry x="5" y="23" width="130" height="60" as="geometry" />
        </mxCell>
        <mxCell id="5Jw4eS8SUsvooxoYUkiR-70" style="edgeStyle=orthogonalEdgeStyle;curved=1;rounded=0;orthogonalLoop=1;jettySize=auto;html=1;exitX=1;exitY=0.5;exitDx=0;exitDy=0;entryX=0;entryY=0.5;entryDx=0;entryDy=0;" edge="1" parent="1" source="pYI6tK5hPcikcJURv3Pi-7" target="5Jw4eS8SUsvooxoYUkiR-13">
          <mxGeometry relative="1" as="geometry">
            <Array as="points">
              <mxPoint x="-77" y="800" />
              <mxPoint x="-10" y="800" />
              <mxPoint x="-10" y="600" />
              <mxPoint x="210" y="600" />
            </Array>
          </mxGeometry>
        </mxCell>
        <mxCell id="5Jw4eS8SUsvooxoYUkiR-72" value="" style="edgeStyle=none;rounded=0;orthogonalLoop=1;jettySize=auto;html=1;exitX=1;exitY=0.5;exitDx=0;exitDy=0;entryX=0;entryY=0.5;entryDx=0;entryDy=0;" edge="1" parent="1" source="5Jw4eS8SUsvooxoYUkiR-10" target="5Jw4eS8SUsvooxoYUkiR-29">
          <mxGeometry relative="1" as="geometry">
            <mxPoint x="-30" y="625" as="sourcePoint" />
            <mxPoint x="213" y="505" as="targetPoint" />
          </mxGeometry>
        </mxCell>
        <mxCell id="5Jw4eS8SUsvooxoYUkiR-14" value="transitionModel" style="ellipse;whiteSpace=wrap;html=1;" vertex="1" parent="1">
          <mxGeometry x="30" y="500" width="100" height="50" as="geometry" />
        </mxCell>
        <mxCell id="5Jw4eS8SUsvooxoYUkiR-74" value="sbTreeInitialiser" style="ellipse;whiteSpace=wrap;html=1;" vertex="1" parent="1">
          <mxGeometry x="60" y="820" width="120" height="80" as="geometry" />
        </mxCell>
        <mxCell id="5Jw4eS8SUsvooxoYUkiR-80" value="" style="edgeStyle=none;rounded=0;orthogonalLoop=1;jettySize=auto;html=1;" edge="1" parent="1" source="5Jw4eS8SUsvooxoYUkiR-77" target="5Jw4eS8SUsvooxoYUkiR-74">
          <mxGeometry relative="1" as="geometry" />
        </mxCell>
        <mxCell id="5Jw4eS8SUsvooxoYUkiR-81" style="edgeStyle=none;rounded=0;orthogonalLoop=1;jettySize=auto;html=1;exitX=0.5;exitY=0;exitDx=0;exitDy=0;entryX=0;entryY=0.5;entryDx=0;entryDy=0;" edge="1" parent="1" source="5Jw4eS8SUsvooxoYUkiR-77" target="pYI6tK5hPcikcJURv3Pi-7">
          <mxGeometry relative="1" as="geometry" />
        </mxCell>
        <mxCell id="5Jw4eS8SUsvooxoYUkiR-77" value="sequence&lt;div&gt;types&lt;/div&gt;" style="ellipse;whiteSpace=wrap;html=1;" vertex="1" parent="1">
          <mxGeometry x="-270" y="900" width="75" height="50" as="geometry" />
        </mxCell>
        <mxCell id="5Jw4eS8SUsvooxoYUkiR-79" value="" style="edgeStyle=none;rounded=0;orthogonalLoop=1;jettySize=auto;html=1;" edge="1" parent="1" source="5Jw4eS8SUsvooxoYUkiR-78" target="5Jw4eS8SUsvooxoYUkiR-74">
          <mxGeometry relative="1" as="geometry" />
        </mxCell>
        <mxCell id="5Jw4eS8SUsvooxoYUkiR-78" value="sequence&lt;div&gt;times&lt;/div&gt;" style="ellipse;whiteSpace=wrap;html=1;" vertex="1" parent="1">
          <mxGeometry x="-270" y="940" width="75" height="50" as="geometry" />
        </mxCell>
        <mxCell id="5Jw4eS8SUsvooxoYUkiR-87" style="edgeStyle=none;rounded=0;orthogonalLoop=1;jettySize=auto;html=1;exitX=1;exitY=0.5;exitDx=0;exitDy=0;entryX=0;entryY=0.5;entryDx=0;entryDy=0;" edge="1" parent="1" source="5Jw4eS8SUsvooxoYUkiR-85" target="pYI6tK5hPcikcJURv3Pi-24">
          <mxGeometry relative="1" as="geometry" />
        </mxCell>
        <mxCell id="5Jw4eS8SUsvooxoYUkiR-85" value="distributions,&lt;div&gt;parameter values,&lt;/div&gt;&lt;div&gt;tree statistics&lt;/div&gt;" style="rounded=1;whiteSpace=wrap;html=1;" vertex="1" parent="1">
          <mxGeometry x="350" y="900" width="120" height="60" as="geometry" />
        </mxCell>
        <mxCell id="5Jw4eS8SUsvooxoYUkiR-89" value="" style="endArrow=classic;html=1;rounded=0;entryX=0;entryY=0.25;entryDx=0;entryDy=0;" edge="1" parent="1" target="5Jw4eS8SUsvooxoYUkiR-85">
          <mxGeometry width="50" height="50" relative="1" as="geometry">
            <mxPoint x="280" y="890" as="sourcePoint" />
            <mxPoint x="325" y="880" as="targetPoint" />
          </mxGeometry>
        </mxCell>
        <mxCell id="5Jw4eS8SUsvooxoYUkiR-90" value="" style="endArrow=classic;html=1;rounded=0;entryX=0.25;entryY=0;entryDx=0;entryDy=0;" edge="1" parent="1" target="5Jw4eS8SUsvooxoYUkiR-85">
          <mxGeometry width="50" height="50" relative="1" as="geometry">
            <mxPoint x="310" y="817.5" as="sourcePoint" />
            <mxPoint x="375" y="832.5" as="targetPoint" />
          </mxGeometry>
        </mxCell>
        <mxCell id="5Jw4eS8SUsvooxoYUkiR-91" value="" style="endArrow=classic;html=1;rounded=0;entryX=0.5;entryY=0;entryDx=0;entryDy=0;" edge="1" parent="1" target="5Jw4eS8SUsvooxoYUkiR-85">
          <mxGeometry width="50" height="50" relative="1" as="geometry">
            <mxPoint x="390" y="820" as="sourcePoint" />
            <mxPoint x="420" y="842.5" as="targetPoint" />
          </mxGeometry>
        </mxCell>
        <mxCell id="5Jw4eS8SUsvooxoYUkiR-94" value="External&amp;nbsp;&lt;span style=&quot;background-color: initial;&quot;&gt;Inputs&lt;/span&gt;" style="swimlane;whiteSpace=wrap;html=1;" vertex="1" parent="1">
          <mxGeometry x="-605" y="40" width="410" height="340" as="geometry" />
        </mxCell>
        <mxCell id="5Jw4eS8SUsvooxoYUkiR-95" value="parameter initial values" style="rounded=1;whiteSpace=wrap;html=1;" vertex="1" parent="5Jw4eS8SUsvooxoYUkiR-94">
          <mxGeometry x="52.5" y="240" width="120" height="60" as="geometry" />
        </mxCell>
        <mxCell id="5Jw4eS8SUsvooxoYUkiR-98" value="operator weights" style="rounded=1;whiteSpace=wrap;html=1;" vertex="1" parent="5Jw4eS8SUsvooxoYUkiR-94">
          <mxGeometry x="242.5" y="140" width="120" height="60" as="geometry" />
        </mxCell>
        <mxCell id="5Jw4eS8SUsvooxoYUkiR-107" style="edgeStyle=orthogonalEdgeStyle;curved=1;rounded=0;orthogonalLoop=1;jettySize=auto;html=1;exitX=0;exitY=0.5;exitDx=0;exitDy=0;" edge="1" parent="5Jw4eS8SUsvooxoYUkiR-94" source="5Jw4eS8SUsvooxoYUkiR-100">
          <mxGeometry relative="1" as="geometry">
            <mxPoint x="295" y="960" as="targetPoint" />
            <Array as="points">
              <mxPoint x="-55" y="170" />
              <mxPoint x="-55" y="960" />
              <mxPoint x="285" y="960" />
            </Array>
          </mxGeometry>
        </mxCell>
        <mxCell id="5Jw4eS8SUsvooxoYUkiR-100" value="data" style="rounded=1;whiteSpace=wrap;html=1;" vertex="1" parent="5Jw4eS8SUsvooxoYUkiR-94">
          <mxGeometry x="52.5" y="140" width="120" height="60" as="geometry" />
        </mxCell>
        <mxCell id="5Jw4eS8SUsvooxoYUkiR-101" value="MCMC chainLength, logging frequencies" style="rounded=1;whiteSpace=wrap;html=1;" vertex="1" parent="5Jw4eS8SUsvooxoYUkiR-94">
          <mxGeometry x="52.5" y="50" width="120" height="60" as="geometry" />
        </mxCell>
        <mxCell id="5Jw4eS8SUsvooxoYUkiR-104" style="edgeStyle=orthogonalEdgeStyle;curved=1;rounded=0;orthogonalLoop=1;jettySize=auto;html=1;exitX=1;exitY=0.5;exitDx=0;exitDy=0;" edge="1" parent="5Jw4eS8SUsvooxoYUkiR-94" source="5Jw4eS8SUsvooxoYUkiR-99">
          <mxGeometry relative="1" as="geometry">
            <mxPoint x="1125" y="200" as="targetPoint" />
          </mxGeometry>
        </mxCell>
        <mxCell id="5Jw4eS8SUsvooxoYUkiR-99" value="scaleFactors for scalers" style="rounded=1;whiteSpace=wrap;html=1;" vertex="1" parent="5Jw4eS8SUsvooxoYUkiR-94">
          <mxGeometry x="242.5" y="50" width="120" height="60" as="geometry" />
        </mxCell>
        <mxCell id="5Jw4eS8SUsvooxoYUkiR-96" value="parameter priors and prior parameters" style="rounded=1;whiteSpace=wrap;html=1;" vertex="1" parent="5Jw4eS8SUsvooxoYUkiR-94">
          <mxGeometry x="242.5" y="240" width="120" height="60" as="geometry" />
        </mxCell>
        <mxCell id="5Jw4eS8SUsvooxoYUkiR-103" style="edgeStyle=orthogonalEdgeStyle;curved=1;rounded=0;orthogonalLoop=1;jettySize=auto;html=1;exitX=1;exitY=0.5;exitDx=0;exitDy=0;entryX=0.5;entryY=0;entryDx=0;entryDy=0;" edge="1" parent="1" source="5Jw4eS8SUsvooxoYUkiR-98" target="5Jw4eS8SUsvooxoYUkiR-49">
          <mxGeometry relative="1" as="geometry">
            <Array as="points">
              <mxPoint x="-242" y="200" />
              <mxPoint x="520" y="200" />
            </Array>
          </mxGeometry>
        </mxCell>
        <mxCell id="5Jw4eS8SUsvooxoYUkiR-105" style="edgeStyle=orthogonalEdgeStyle;curved=1;rounded=0;orthogonalLoop=1;jettySize=auto;html=1;exitX=0.5;exitY=1;exitDx=0;exitDy=0;entryX=0;entryY=0.5;entryDx=0;entryDy=0;" edge="1" parent="1" source="5Jw4eS8SUsvooxoYUkiR-95" target="5Jw4eS8SUsvooxoYUkiR-44">
          <mxGeometry relative="1" as="geometry" />
        </mxCell>
        <mxCell id="5Jw4eS8SUsvooxoYUkiR-106" style="edgeStyle=orthogonalEdgeStyle;curved=1;rounded=0;orthogonalLoop=1;jettySize=auto;html=1;exitX=1;exitY=0.5;exitDx=0;exitDy=0;entryX=0.5;entryY=0;entryDx=0;entryDy=0;" edge="1" parent="1" source="5Jw4eS8SUsvooxoYUkiR-96" target="5Jw4eS8SUsvooxoYUkiR-97">
          <mxGeometry relative="1" as="geometry">
            <Array as="points">
              <mxPoint x="-242" y="260" />
              <mxPoint x="247" y="260" />
            </Array>
          </mxGeometry>
        </mxCell>
        <mxCell id="5Jw4eS8SUsvooxoYUkiR-108" style="edgeStyle=orthogonalEdgeStyle;curved=1;rounded=0;orthogonalLoop=1;jettySize=auto;html=1;exitX=1;exitY=0.5;exitDx=0;exitDy=0;entryX=0.5;entryY=0;entryDx=0;entryDy=0;" edge="1" parent="1" source="5Jw4eS8SUsvooxoYUkiR-101" target="pYI6tK5hPcikcJURv3Pi-1">
          <mxGeometry relative="1" as="geometry">
            <Array as="points">
              <mxPoint x="-432" y="20" />
              <mxPoint x="720" y="20" />
            </Array>
          </mxGeometry>
        </mxCell>
      </root>
    </mxGraphModel>
  </diagram>
</mxfile>
